<?xml version="1.0" encoding="UTF-8" standalone="no"?>
<svg
   version="1.1"
   id="svg3"
   xmlns:inkscape="http://www.inkscape.org/namespaces/inkscape"
   xmlns:sodipodi="http://sodipodi.sourceforge.net/DTD/sodipodi-0.dtd"
   xmlns="http://www.w3.org/2000/svg"
   xmlns:svg="http://www.w3.org/2000/svg"
   sodipodi:docname="boose.svg"
   inkscape:version="1.4.2 (f4327f4, 2025-05-13)"
   viewBox="0 0 378.2124 378.57315"
   preserveAspectRatio="xMidYMid meet"
   width="38"
   height="38">

  <defs
     id="defs3" />
  <sodipodi:namedview
     id="namedview3"
     pagecolor="#ffffff"
     bordercolor="#000000"
     borderopacity="0.25"
     inkscape:showpageshadow="2"
     inkscape:pageopacity="0.0"
     inkscape:pagecheckerboard="0"
     inkscape:deskcolor="#d1d1d1"
     inkscape:zoom="1.4750247"
     inkscape:cx="149.48902"
     inkscape:cy="205.08131"
     inkscape:window-width="2400"
     inkscape:window-height="1261"
     inkscape:window-x="-9"
     inkscape:window-y="-9"
     inkscape:window-maximized="1"
     inkscape:current-layer="svg3" />
  <path
     d="m 203.04835,4.0474957 c 5.37723,4.2365158 10.16507,9.1685353 15,14.0000003 1.4478,1.433707 2.89572,2.867299 4.34375,4.300781 3.35682,3.33489 6.69519,6.687387 10.02368,10.050537 2.20269,2.224437 4.41734,4.436721 6.63257,6.648682 1.54826,1.54809 3.09643,3.096278 4.64453,4.644531 0.84111,0.841114 1.68222,1.682227 2.54883,2.548828 3.93554,3.935547 7.87109,7.871094 11.80664,11.806641 0.0374,-1.229766 0.0748,-2.459531 0.11328,-3.726563 0.0657,-1.632841 0.13213,-3.265652 0.19922,-4.898437 0.0226,-0.808242 0.0451,-1.616484 0.0684,-2.449219 0.22421,-5.014132 0.96376,-8.526248 3.61914,-12.925781 0.66,0 1.32,0 2,0 0.37125,-0.890782 0.37125,-0.890782 0.75,-1.799561 2.52396,-4.443054 6.57832,-6.429792 11.25,-8.200439 5.14986,-0.915571 10.37318,-0.823336 15.58593,-0.727295 2.41066,0.03974 4.81581,0.02064 7.22657,-0.0051 9.61405,0.0045 17.67218,0.695629 25.10938,7.487549 7.14036,7.329261 6.4064,16.551723 6.49218,26.190185 0.0188,1.374594 0.0384,2.749178 0.0587,4.123749 0.0512,3.618432 0.0908,7.236902 0.12814,10.8555 0.0317,2.894019 0.0714,5.7879 0.11161,8.681812 0.32915,23.721944 0.32915,23.721944 0.23965,32.955144 -0.008,0.97299 -0.0164,1.94598 -0.0248,2.94846 -0.0185,1.75267 -0.0457,3.50528 -0.0839,5.25763 -0.0564,5.09037 0.27356,8.87115 3.49765,12.91403 0.50234,0.48662 1.00467,0.97324 1.52222,1.47461 0.55752,0.54785 1.11504,1.0957 1.68945,1.66016 0.58073,0.55558 1.16145,1.11117 1.75977,1.68359 0.56912,0.55559 1.13824,1.11117 1.72461,1.68359 1.13024,1.10299 2.2632,2.2032 3.39893,3.30054 2.21413,2.14604 4.38684,4.33232 6.56396,6.51587 1.41627,1.40534 2.83299,2.81025 4.25,4.21484 1.58339,1.57416 3.16673,3.14838 4.75,4.72266 0.79406,0.78568 1.58812,1.57137 2.40625,2.38086 15.05635,14.99361 15.05635,14.99361 15.75781,26.33398 -0.5069,7.83212 -3.69318,14.70023 -9.16411,20.34764 -0.99,0 -1.98,0 -3,0 -0.33,0.66 -0.66,1.32 -1,2 -6.90473,3.55463 -14.47629,3.53429 -22.0625,3.6875 -1.15178,0.0342 -2.30355,0.0683 -3.49023,0.10352 -2.81566,0.0818 -5.63104,0.15115 -8.44727,0.20898 0.003,0.7123 0.006,1.42461 0.008,2.1585 0.0664,17.3615 0.11595,34.72297 0.14706,52.08458 0.0154,8.39607 0.0365,16.79206 0.0709,25.18807 0.03,7.32112 0.0493,14.64217 0.056,21.96335 0.004,3.87367 0.013,7.74716 0.0349,11.62077 0.0205,3.65255 0.0266,7.30485 0.0221,10.95745 10e-4,1.9662 0.0173,3.93237 0.0339,5.8985 -0.0323,9.32433 -0.68952,18.19028 -7.37326,25.25378 -0.68063,0.74508 -1.36125,1.49016 -2.0625,2.25781 -1.9371,1.61719 -1.9371,1.61719 -4.9371,1.61719 0,0.66 0,1.32 0,2 -6.80237,1.59136 -13.19437,2.2917 -20.17066,2.26743 -0.97337,0.005 -1.94675,0.009 -2.94962,0.0137 -3.23469,0.0126 -6.46922,0.011 -9.70394,0.009 -2.33005,0.006 -4.6601,0.0128 -6.99015,0.0204 -6.3098,0.0176 -12.61955,0.0224 -18.92938,0.0236 -3.94499,0.001 -7.88997,0.006 -11.83496,0.011 -13.0606,0.0175 -26.12117,0.0268 -39.18178,0.0253 -0.70262,-8e-5 -1.40525,-1.6e-4 -2.12916,-2.4e-4 -1.05523,-1.3e-4 -1.05523,-1.3e-4 -2.13178,-2.5e-4 -11.40609,-8.2e-4 -22.81204,0.0183 -34.21809,0.0465 -11.73216,0.0288 -23.46426,0.0425 -35.19646,0.0408 -6.57864,-5e-4 -13.15713,0.005 -19.73575,0.0264 -6.18562,0.0194 -12.37095,0.0195 -18.556583,0.005 -2.2663,-0.002 -4.53261,0.003 -6.79887,0.0147 -3.10106,0.0155 -6.20112,0.006 -9.30217,-0.009 -0.89009,0.0103 -1.78019,0.0206 -2.69726,0.0312 -8.85987,-0.0967 -16.59849,-2.89928 -23.07495,-9.04128 -7.72772,-8.2026 -6.67332,-20.84263 -6.53369,-31.40112 0.0105,-1.3612 0.02,-2.72241 0.0287,-4.08363 0.0259,-3.66052 0.0646,-7.3208 0.10572,-10.98117 0.0409,-3.83827 0.0699,-7.67662 0.10013,-11.51499 0.059,-7.25291 0.12859,-14.50569 0.20207,-21.75847 0.0832,-8.26363 0.15447,-16.52735 0.22477,-24.7911 0.14476,-16.98476 0.30437,-33.96936 0.47389,-50.95389 -1.05743,0.0236 -1.05743,0.0236 -2.13623,0.0476 -3.24617,0.063 -6.49222,0.10159 -9.73877,0.13989 -1.10859,0.0251 -2.21719,0.0503 -3.35937,0.0762 -8.73471,0.0771 -15.9969,-1.2098 -23.7656303,-5.26367 0,-0.66 0,-1.32 0,-2 -0.99,-0.33 -1.98,-0.66 -3,-1 -3.88329,-5.65658 -6.43589004,-12.08627 -6.00000004,-19 C 3.6656167,170.30395 19.849217,158.09634 31.484167,146.46636 c 1.41728,-1.42028 2.83435,-2.84076 4.25124,-4.26142 3.811,-3.81976 7.62517,-7.63634 11.44023,-11.45205 2.3848,-2.38551 4.76889,-4.77174 7.15272,-7.15822 8.31863,-8.32784 16.6398,-16.65313 24.96343,-24.975975 7.7602,-7.759598 15.51477,-15.524789 23.266803,-23.29255 6.66586,-6.678902 13.33553,-13.353975 20.00824,-20.026037 3.98169,-3.98144 7.96181,-7.964429 11.93809,-11.951272 3.72783,-3.737459 7.46036,-7.470154 11.19666,-11.199143 1.37321,-1.372157 2.74469,-2.746041 4.11437,-4.121727 1.86182,-1.869469 3.72962,-3.732747 5.59914,-5.594513 0.54697,-0.552111 1.09394,-1.104222 1.65748,-1.673064 3.7475,-3.712893 3.7475,-3.712893 5.97578,-3.712893 0.25265,-0.587812 0.50531,-1.175625 0.76562,-1.78125 3.63007,-6.524927 11.837,-11.9833406 18.67188,-14.4687503 7.77596,-1.6370445 13.76775,-0.8487079 20.5625,3.25 z M 99.048347,127.0475 c -1.87149,1.87149 -1.17405,4.93852 -1.1875,7.4375 0.14862,12.26094 3.072363,19.9187 9.187503,30.5625 0.67882,1.32719 1.35155,2.65771 2,4 0.66,0 1.32,0 2,0 0.19336,0.60328 0.38672,1.20656 0.58593,1.82812 0.39059,1.19883 0.39059,1.19883 0.78907,2.42188 0.25523,0.78891 0.51047,1.57781 0.77343,2.39062 0.79269,2.36187 0.79269,2.36187 1.95313,4.46875 0.89844,1.89063 0.89844,1.89063 0.89844,4.89063 -0.9436,0.10957 -1.88719,0.21914 -2.85938,0.33203 -16.746903,1.716 -16.746903,1.716 -31.140623,9.66797 -2.34169,3.51253 -2.49624,4.86469 -2,9 2.98769,5.83311 9.06902,8.0127 15,10 3.68026,0.70914 7.257133,0.93069 11.000003,1 0.88429,0.0271 1.76859,0.0541 2.67968,0.082 7.13921,0.11384 14.21346,-0.44928 21.32032,-1.082 0.10699,0.92941 0.21398,1.85883 0.32422,2.81641 0.73713,5.14443 2.14189,10.10875 3.48828,15.12109 0.54615,2.06365 1.09172,4.12745 1.63672,6.19141 0.26603,1.00434 0.53206,2.00868 0.80615,3.04345 2.19237,8.32527 4.25743,16.68131 6.18945,25.0708 1.57677,6.82276 3.24313,13.6175 5.05518,20.38184 0.18941,0.73396 0.37882,1.46792 0.57397,2.22412 1.33921,4.89301 3.25308,8.83566 5.92603,13.15088 0.66,0 1.32,0 2,0 0,0.66 0,1.32 0,2 9.37588,8.89507 20.57198,12.97192 33.4375,13.4375 12.2539,-0.33713 22.98771,-5.03157 32.375,-12.75 6.27686,-7.71157 8.56412,-15.95053 10.69482,-25.4834 0.67883,-3.0369 1.38597,-6.06692 2.09595,-9.09668 0.33845,-1.44822 0.67285,-2.89739 1.00244,-4.34765 0.68872,-2.99086 1.44234,-5.90318 2.41772,-8.81446 1.08975,-3.28668 1.79193,-6.55191 2.47657,-9.94531 0.90235,-4.47255 2.04428,-8.67982 3.5,-13 0.36442,-1.66015 0.69973,-3.32706 1,-5 0.71939,-3.80251 1.77584,-7.32753 3,-11 0,-1.32 0,-2.64 0,-4 0.71543,0.0722 1.43086,0.14437 2.16797,0.21875 23.0039,2.22377 23.0039,2.22377 43.83203,-6.21875 2.16469,-1.93579 3.40754,-3.50515 5,-6 0.11501,-3.79547 -2.52177,-6.31524 -5,-9 -8.7732,-6.91222 -22.32724,-7.22235 -33,-7 3.6808,-12.27588 3.6808,-12.27588 8,-17 6.90062,-11.04099 11.18764,-21.29709 11.0625,-34.4375 -0.009,-1.23621 -0.0181,-2.47242 -0.0273,-3.74609 -0.0116,-0.92942 -0.0232,-1.85883 -0.0352,-2.81641 -0.99,0 -1.98,0 -3,0 -0.33,0.99 -0.66,1.98 -1,3 -0.66,0 -1.32,0 -2,0 -1.01475,1.65773 -2.01106,3.32675 -3,5 -5.46567,6.64004 -11.05747,13.34225 -19,17 -0.83016,0.38801 -1.66032,0.77602 -2.51563,1.17578 -7.39072,3.07243 -15.09809,4.52973 -22.90234,2.05859 -1.61531,-0.68183 -3.22572,-1.37536 -4.83203,-2.07812 -20.79175,-8.74198 -46.21887,-7.98404 -67.04834,0.11743 -1.81241,0.74452 -1.81241,0.74452 -3.90479,1.9021 -6.00426,2.75413 -14.24485,0.96455 -20.2539,-1.07031 -8.04408,-3.49689 -14.76239,-8.55716 -20.54297,-15.10547 -0.495,-0.55043 -0.99,-1.10086 -1.5,-1.66797 -2.10582,-2.42289 -3.47541,-4.25826 -4.5,-7.33203 -0.66,0 -1.32,0 -2,0 -0.66,-1.32 -1.32,-2.64 -2,-4 -0.330003,0 -0.660003,0 -1.000003,0 z"
     fill="#010101"
     id="path1" />
  <path
     d="m 53.048347,125.0475 c 0.66,0.33 1.32,0.66 2,1 -0.603282,0.59168 -1.206563,1.18336 -1.828125,1.79296 -4.949555,4.85812 -4.949555,4.85812 -9.421875,10.14454 -2.041374,2.4059 -3.764014,3.15011 -6.75,4.0625 4.984042,-6.03332 10.419153,-11.51842 16,-17 z"
     fill="#161616"
     id="path2" />
  <path
     d="m 92.048347,86.047496 c 0,4.302699 -2.200957,5.867737 -5,9 -0.66,0.66 -1.32,1.32 -2,2 -0.99,-0.33 -1.98,-0.66 -3,-1 3.3,-3.3 6.6,-6.6 10,-10 z"
     fill="#141415"
     id="path3" />
</svg>
